<?xml version="1.0" encoding="UTF-8"?><svg id="Capa_2" xmlns="http://www.w3.org/2000/svg" viewBox="0 0 437.83 78.71"><defs><style>.cls-1{fill:none;opacity:.5;}.cls-2{fill:#fff;}.cls-3{fill:#ae7fa0;}</style></defs><g id="Capa_1-2"><path class="cls-2" d="m151.56,17.08v-.92h8.07v.92c-.38.17-.77.32-1.18.46s-.81.25-1.24.33h0v17.79c0,1.48-.17,2.7-.51,3.65-.34.95-.76,1.72-1.25,2.3-.5.58-1.03,1.01-1.59,1.28-.56.28-1.08.47-1.54.57h0l-.35-.48c.32-.28.61-.59.87-.94.27-.35.5-.78.7-1.32.2-.53.35-1.18.46-1.94.11-.76.16-1.69.16-2.79h0v-18.14c-.47-.1-.92-.22-1.37-.35-.45-.13-.86-.27-1.24-.44h0Z"/><path class="cls-2" d="m191.11,34.48h0c-.63-.57-1.33-1.25-2.08-2.02-.75-.77-1.48-1.56-2.18-2.37-.7-.8-1.34-1.58-1.94-2.32-.59-.74-1.06-1.36-1.4-1.84h0c-.91.89-1.57,1.75-1.97,2.59-.4.84-.6,1.82-.6,2.94h0c0,.8.13,1.55.4,2.24.27.69.63,1.29,1.1,1.8.47.51,1.03.91,1.68,1.19.66.29,1.37.43,2.13.43h0c.95,0,1.84-.22,2.67-.65.83-.43,1.56-1.1,2.19-1.98Zm-8.2-14.61h0c0,.38.07.79.22,1.22.15.43.34.86.59,1.29.24.42.51.83.8,1.24.29.4.57.76.84,1.08h0c.76-.63,1.38-1.37,1.86-2.21.48-.84.66-1.83.55-2.97h0c-.04-.68-.25-1.25-.63-1.71-.38-.47-.99-.7-1.81-.7h0c-.46,0-.85.08-1.16.24-.31.16-.55.37-.75.64-.19.27-.32.56-.4.89-.07.33-.11.66-.11,1Zm17.69,18.52h-4.51c-.45-.3-1.01-.66-1.68-1.1-.68-.43-1.42-1.04-2.22-1.83h0c-.3.4-.67.8-1.11,1.19-.44.39-.97.74-1.57,1.06-.61.32-1.28.57-2.02.76-.74.19-1.55.28-2.42.28h0c-1.12,0-2.14-.17-3.05-.51-.91-.34-1.68-.8-2.32-1.37s-1.13-1.23-1.48-1.97c-.35-.74-.52-1.51-.52-2.32h0c0-1.04.19-1.98.57-2.81.38-.84.83-1.57,1.36-2.19.53-.63,1.08-1.16,1.65-1.59s1.05-.79,1.43-1.06h0c-.61-.68-1.13-1.47-1.56-2.39-.42-.91-.63-1.75-.63-2.54h0c0-.53.1-1.05.31-1.57.21-.52.53-.97.94-1.37.41-.39.92-.71,1.52-.95.6-.24,1.29-.36,2.05-.36h0c1.4,0,2.53.3,3.38.9.86.6,1.28,1.48,1.28,2.62h0c0,.7-.12,1.35-.36,1.95-.24.6-.56,1.16-.94,1.66-.38.51-.81.98-1.28,1.4-.48.43-.95.82-1.42,1.18h0c.87,1.08,1.88,2.19,3.02,3.34,1.14,1.14,2.35,2.28,3.62,3.43h0c.17-.23.38-.62.63-1.18.26-.55.5-1.2.72-1.94.22-.74.4-1.55.54-2.43.14-.88.18-1.75.11-2.62h0c-.63-.13-1.26-.38-1.87-.76h0v-.83h6.45v.83c-.57.36-1.27.61-2.1.76h0c-.19,1.25-.43,2.38-.73,3.4-.3,1.02-.6,1.91-.92,2.69-.32.77-.62,1.43-.9,1.97-.29.54-.51.94-.69,1.19h0c.81.66,1.6,1.26,2.37,1.83.77.56,1.64,1.12,2.59,1.67h0l1.74.76v.8Z"/><path class="cls-2" d="m229.83,17.08v-.92h6.86v.92c-.89.59-1.76,1.01-2.6,1.27h0v20.42h-1.81l-11.53-17.5-1.24-2.48h-.1l.29,2.48v15.09c.87.23,1.68.6,2.44,1.11h0v.92h-6.86v-.92c.38-.23.79-.44,1.22-.62.43-.18.89-.34,1.38-.49h0v-18.2c-.42-.17-.84-.35-1.25-.54-.41-.19-.8-.38-1.16-.57h0v-.89h5.36l10,15.09,1.46,2.73h.13l-.16-2.73v-12.9c-.45-.19-.88-.39-1.29-.6-.41-.21-.8-.43-1.16-.66h0Z"/><path class="cls-2" d="m257.46,37.46v.92h-7.05v-.92c.76-.34,1.52-.59,2.28-.76h0l8.03-20.93h.92l8.04,20.93c.42.09.84.18,1.25.29s.8.26,1.16.48h0v.92h-8.13v-.92c.42-.17.86-.32,1.3-.45.45-.13.88-.23,1.3-.32h0l-2.16-5.81h-7.59l-2.1,5.81c.89.13,1.8.38,2.73.76h0Zm2.44-14.9l-2.44,6.67h6.41l-2.51-6.73-.6-2.73h-.07l-.8,2.79Z"/><path class="cls-2" d="m278.61,38.39h-3.05v-.92c.84-.4,1.71-.66,2.6-.76h0v-18.83c-.43-.08-.86-.2-1.3-.33-.45-.14-.88-.29-1.3-.46h0v-.92h3.36c.4,0,.79-.01,1.16-.03.37-.02.76-.05,1.16-.07.4-.02.84-.04,1.3-.07.47-.02.99-.03,1.59-.03h0c.85,0,1.71.07,2.59.21.88.14,1.67.4,2.38.78.71.38,1.29.91,1.73,1.6.45.69.67,1.58.67,2.68h0c0,.55-.08,1.1-.25,1.65s-.43,1.06-.78,1.54c-.35.47-.79.89-1.32,1.25-.53.36-1.15.62-1.87.8h0v.13c.63.1,1.27.28,1.89.54.62.25,1.18.6,1.66,1.03.49.44.89.97,1.19,1.61.31.63.46,1.4.46,2.28h0c0,1.14-.25,2.13-.76,2.95-.51.83-1.17,1.5-1.98,2.03-.82.53-1.74.92-2.78,1.16-1.04.24-2.08.36-3.14.36h0c-.74,0-1.58-.03-2.51-.09-.93-.06-1.83-.1-2.7-.1h0Zm5.43-1.46h0c.76,0,1.47-.12,2.14-.35s1.24-.55,1.72-.97c.48-.41.85-.91,1.13-1.49.28-.58.42-1.21.42-1.89h0c0-.84-.16-1.55-.49-2.11-.33-.56-.77-1.01-1.33-1.33-.56-.33-1.21-.56-1.94-.69-.73-.13-1.49-.19-2.27-.19h-2.38v8.76c.3.08.65.15,1.07.19.41.04,1.06.06,1.95.06Zm-3.02-10.67h1.59c.36,0,.79-.02,1.28-.05s.91-.07,1.22-.11h0c.97-.34,1.77-.88,2.4-1.63.62-.75.93-1.64.93-2.65h0c0-1.4-.42-2.45-1.25-3.15-.84-.7-1.95-1.05-3.35-1.05h0c-.66,0-1.22.01-1.68.03-.47.02-.85.06-1.14.1h0v8.51Z"/><path class="cls-2" d="m298.4,27.27h0c0-1.65.23-3.18.68-4.59.45-1.41,1.11-2.63,1.97-3.65.86-1.03,1.91-1.83,3.16-2.4,1.25-.57,2.67-.86,4.26-.86h0c1.59,0,3.01.29,4.26.86,1.25.57,2.3,1.37,3.16,2.4.86,1.03,1.51,2.24,1.97,3.65.45,1.41.68,2.94.68,4.59h0c0,1.65-.23,3.18-.68,4.59-.46,1.41-1.11,2.62-1.97,3.65-.86,1.03-1.91,1.82-3.16,2.4-1.25.57-2.66.86-4.26.86h0c-1.59,0-3.01-.29-4.26-.86-1.25-.57-2.3-1.37-3.16-2.4-.86-1.03-1.52-2.25-1.97-3.65-.45-1.41-.68-2.94-.68-4.59Zm3.4,0h0c0,1.36.14,2.63.43,3.83.29,1.2.71,2.24,1.28,3.13.57.89,1.29,1.6,2.16,2.11.87.52,1.89.78,3.08.78h0c1.08,0,2.02-.26,2.83-.78.8-.52,1.47-1.22,1.98-2.11.52-.89.91-1.93,1.18-3.13.27-1.19.4-2.47.4-3.83h0c0-1.35-.14-2.63-.42-3.83-.27-1.19-.7-2.24-1.27-3.13-.57-.89-1.29-1.59-2.16-2.11-.87-.52-1.89-.78-3.08-.78h0c-1.17,0-2.16.26-2.97.78-.82.52-1.48,1.22-1.98,2.11-.51.89-.88,1.93-1.11,3.13-.23,1.2-.35,2.47-.35,3.83Z"/><path class="cls-2" d="m342.1,29.59v7.27c-.4.23-.87.46-1.41.68-.54.22-1.11.42-1.72.6-.6.18-1.21.33-1.81.45-.6.12-1.17.17-1.7.17h0c-1.7,0-3.22-.23-4.57-.68-1.35-.46-2.51-1.16-3.46-2.1-.95-.94-1.69-2.13-2.21-3.57-.52-1.44-.78-3.15-.78-5.15h0c0-2.07.3-3.84.9-5.3.6-1.46,1.41-2.65,2.42-3.57,1-.92,2.15-1.59,3.43-2,1.28-.41,2.59-.62,3.92-.62h0c1.4,0,2.58.09,3.54.27.96.18,1.81.45,2.53.81h0c0,.32-.01.71-.03,1.18-.02.47-.05.95-.1,1.46-.04.51-.09,1.01-.16,1.51-.06.5-.13.94-.19,1.32h-.83l-1.65-4.57c-.23-.13-.62-.21-1.18-.25-.55-.04-1.09-.06-1.62-.06h0c-1.06,0-2.07.2-3.02.59-.95.39-1.78,1-2.49,1.81-.71.82-1.27,1.84-1.7,3.08-.42,1.24-.63,2.69-.63,4.36h0c0,1.5.21,2.86.62,4.07.41,1.21.98,2.24,1.71,3.1.73.86,1.59,1.52,2.57,1.98.98.47,2.05.7,3.19.7h0c.42,0,.83-.04,1.24-.13.4-.08.77-.18,1.11-.3.34-.12.62-.24.84-.37.22-.13.38-.23.46-.31h0v-6.42c-.55-.04-1.07-.14-1.57-.28-.5-.15-.99-.31-1.48-.48h0v-.92h7.78v.92c-.21.15-.47.28-.76.41-.29.13-.7.24-1.21.35h0Z"/><path class="cls-2" d="m354.2,37.46v.92h-7.05v-.92c.76-.34,1.53-.59,2.29-.76h0l8.03-20.93h.92l8.03,20.93c.42.09.84.18,1.25.29s.8.26,1.16.48h0v.92h-8.13v-.92c.43-.17.86-.32,1.31-.45.44-.13.88-.23,1.3-.32h0l-2.16-5.81h-7.59l-2.1,5.81c.89.13,1.8.38,2.73.76h0Zm2.45-14.9l-2.45,6.67h6.42l-2.51-6.73-.6-2.73h-.06l-.8,2.79Z"/><path class="cls-2" d="m375.36,38.39h-3.05v-.92c.74-.34,1.61-.59,2.6-.76h0v-18.83c-.49-.1-.95-.23-1.4-.36-.44-.14-.84-.28-1.21-.43h0v-.92h3.24c.36,0,.78-.01,1.27-.03.49-.02.99-.05,1.51-.08.52-.03,1.02-.06,1.49-.09.48-.03.88-.05,1.19-.05h0c3.6,0,6.37.96,8.31,2.89,1.94,1.93,2.91,4.66,2.91,8.2h0c0,1.67-.24,3.22-.71,4.65-.48,1.43-1.2,2.66-2.18,3.7-.98,1.04-2.21,1.85-3.7,2.45-1.49.59-3.26.89-5.29.89h0c-.32,0-.68-.02-1.08-.05-.4-.03-.83-.06-1.27-.09-.44-.03-.89-.06-1.35-.1-.45-.03-.88-.05-1.28-.05h0Zm5.21-20.83h0c-.55,0-1.08,0-1.59.01-.51.01-.91.05-1.21.11h0v19.24c.11.02.3.04.57.05.28.01.57.02.89.03.32,0,.62.01.9.01h.62c1.46,0,2.7-.28,3.71-.83,1.02-.55,1.85-1.29,2.49-2.21.65-.92,1.12-1.98,1.42-3.19.29-1.21.44-2.48.44-3.81h0c0-1.04-.14-2.11-.43-3.22-.29-1.11-.75-2.13-1.4-3.05-.64-.92-1.5-1.68-2.56-2.27-1.06-.59-2.35-.89-3.88-.89Z"/><path class="cls-2" d="m398.1,27.27h0c0-1.65.23-3.18.69-4.59.45-1.41,1.11-2.63,1.97-3.65.86-1.03,1.91-1.83,3.16-2.4,1.25-.57,2.67-.86,4.26-.86h0c1.59,0,3.01.29,4.26.86,1.25.57,2.3,1.37,3.16,2.4.86,1.03,1.52,2.24,1.97,3.65.45,1.41.68,2.94.68,4.59h0c0,1.65-.23,3.18-.68,4.59-.45,1.41-1.11,2.62-1.97,3.65-.86,1.03-1.91,1.82-3.16,2.4-1.25.57-2.67.86-4.26.86h0c-1.59,0-3.01-.29-4.26-.86-1.25-.57-2.3-1.37-3.16-2.4-.86-1.03-1.51-2.25-1.97-3.65-.46-1.41-.69-2.94-.69-4.59Zm3.4,0h0c0,1.36.14,2.63.43,3.83.29,1.2.72,2.24,1.29,3.13.57.89,1.29,1.6,2.16,2.11.87.52,1.89.78,3.08.78h0c1.08,0,2.02-.26,2.83-.78.81-.52,1.47-1.22,1.99-2.11.52-.89.91-1.93,1.18-3.13.27-1.19.4-2.47.4-3.83h0c0-1.35-.14-2.63-.42-3.83-.27-1.19-.7-2.24-1.27-3.13-.57-.89-1.29-1.59-2.16-2.11-.87-.52-1.89-.78-3.08-.78h0c-1.17,0-2.16.26-2.97.78s-1.48,1.22-1.98,2.11c-.51.89-.88,1.93-1.11,3.13-.23,1.2-.35,2.47-.35,3.83Z"/><path class="cls-2" d="m425.92,31.52l1.3,4.67c.25.25.58.47.98.65.4.18,1.01.27,1.81.27h0c.68,0,1.31-.09,1.9-.27.59-.18,1.1-.45,1.54-.8.43-.35.78-.77,1.04-1.27.25-.5.38-1.06.38-1.7h0c0-.85-.26-1.56-.78-2.13-.52-.57-1.17-1.08-1.94-1.52-.77-.45-1.61-.88-2.53-1.3-.91-.43-1.75-.93-2.53-1.51-.77-.58-1.42-1.28-1.94-2.1-.52-.81-.78-1.83-.78-3.06h0c0-.89.16-1.68.48-2.38s.77-1.29,1.35-1.78c.58-.49,1.28-.87,2.08-1.13.8-.26,1.7-.39,2.7-.39h0c1.29,0,2.47.1,3.54.3,1.07.2,1.91.45,2.53.74h0c0,.36-.03.78-.08,1.26-.05.47-.12.97-.19,1.48-.08.51-.16,1-.24,1.48-.08.47-.17.89-.25,1.25h-.83l-1.27-4.35c-.38-.17-.86-.3-1.45-.38-.58-.08-1.2-.13-1.86-.13h0c-1.08,0-1.95.3-2.6.9s-.98,1.44-.98,2.53h0c0,.87.26,1.6.78,2.19.52.59,1.17,1.12,1.95,1.59.78.47,1.63.92,2.53,1.35s1.74.94,2.53,1.51,1.43,1.25,1.95,2.03.78,1.76.78,2.92h0c0,.95-.17,1.82-.52,2.6-.35.78-.85,1.45-1.51,2-.66.55-1.46.97-2.42,1.27s-2.03.45-3.24.45h0c-1.33,0-2.53-.16-3.59-.48-1.06-.32-1.81-.66-2.25-1.02h0c.02-.36.06-.79.11-1.3.06-.51.12-1.03.19-1.57.07-.54.15-1.06.24-1.57.08-.51.17-.95.25-1.31h.83Z"/><path class="cls-2" d="m159.7,65.87v-.23h1.71v.23c-.22.15-.44.25-.65.31h0v5.09h-.45l-2.87-4.36-.31-.62h-.03l.07.62v3.76c.22.06.42.15.61.28h0v.23h-1.71v-.23c.1-.06.2-.11.31-.15.11-.05.22-.09.35-.12h0v-4.53c-.11-.04-.21-.09-.31-.14-.1-.05-.2-.09-.29-.14h0v-.22h1.34l2.49,3.75.36.68h.03l-.04-.68v-3.21c-.11-.05-.22-.1-.32-.15-.1-.05-.2-.11-.29-.17h0Z"/><path class="cls-2" d="m164.09,65.87v-.23h2.01v.23c-.1.04-.2.08-.3.11-.1.03-.2.06-.3.09h0v3.24c0,.28.03.51.09.7.06.19.15.34.26.45.12.11.26.2.43.24.17.05.37.07.58.07h0c.42,0,.74-.11.97-.34.23-.23.35-.61.35-1.14h0v-3.15c-.12-.04-.23-.09-.34-.13-.1-.05-.2-.09-.28-.14h0v-.23h1.69v.23c-.1.06-.2.11-.31.16-.1.05-.21.09-.31.11h0v3.17c0,.34-.05.63-.14.87-.09.24-.22.44-.38.6-.16.16-.36.28-.59.35-.23.08-.48.11-.76.11h0c-.66,0-1.16-.15-1.51-.45-.35-.3-.52-.76-.52-1.37h0v-3.36c-.22-.03-.43-.1-.65-.2h0Z"/><path class="cls-2" d="m171.92,65.64h3.75c0,.21-.01.42-.03.63-.01.22-.03.43-.06.65h-.21l-.32-.87h-1.72v2.09h1.29l.31-.59h.2c.03.52.03,1.06,0,1.6h-.2l-.31-.6h-1.29v2.21h1.82l.39-.95h.2c.04.22.06.45.08.67.01.23.02.46,0,.69h-3.9v-.23c.19-.08.4-.15.65-.19h0v-4.69c-.1-.02-.21-.05-.32-.08-.11-.03-.22-.07-.33-.11h0v-.23Z"/><path class="cls-2" d="m179.53,69.47l.32,1.16c.06.06.15.12.24.16.1.04.25.07.45.07h0c.17,0,.33-.02.48-.07.15-.05.27-.11.38-.2.11-.09.19-.19.25-.32.06-.12.1-.26.1-.42h0c0-.21-.06-.39-.19-.53-.13-.14-.29-.27-.48-.38-.19-.11-.4-.22-.63-.32-.22-.1-.43-.23-.62-.38-.2-.15-.36-.32-.48-.52-.13-.2-.19-.46-.19-.76h0c0-.22.04-.42.12-.59.08-.17.19-.32.34-.44.15-.12.32-.22.52-.28.2-.06.43-.1.67-.1h0c.32,0,.62.02.88.07.27.05.47.11.63.19h0c0,.09,0,.19-.02.31-.01.12-.03.24-.04.37-.02.13-.04.25-.06.37-.02.12-.04.22-.06.31h-.21l-.31-1.08c-.1-.04-.22-.08-.36-.1-.15-.02-.3-.03-.46-.03h0c-.27,0-.48.08-.65.23-.16.15-.24.36-.24.62h0c0,.22.07.4.2.55.13.15.29.28.48.4.2.12.4.23.63.34.22.11.43.23.63.38.2.14.36.31.48.51.13.2.19.44.19.73h0c0,.24-.04.46-.13.65-.09.2-.21.36-.38.5-.17.14-.37.24-.6.31-.24.07-.51.11-.81.11h0c-.33,0-.63-.04-.89-.12-.27-.08-.45-.16-.56-.25h0c0-.09.02-.2.03-.32.01-.13.03-.26.05-.39.02-.13.04-.26.06-.39.02-.13.04-.24.07-.32h.21Z"/><path class="cls-2" d="m188.84,70.94v.23h-2.22v-.23c.12-.04.23-.08.35-.11s.25-.06.38-.08h0v-4.71h-1.21l-.42,1.13h-.2c-.02-.11-.03-.23-.04-.36-.01-.13-.02-.27-.03-.41,0-.14-.01-.28-.02-.41s0-.25,0-.36h4.6c0,.1,0,.22,0,.35s-.01.27-.02.41c0,.14-.02.28-.02.41,0,.14-.02.26-.03.37h-.21l-.42-1.13h-1.21v4.71c.14.03.27.05.38.08.12.03.23.06.35.11h0Z"/><path class="cls-2" d="m194.19,68.72v2.04c.12.03.23.05.35.08s.22.06.32.1h0v.23h-2.08v-.23c.12-.05.23-.09.33-.12.11-.03.21-.05.32-.07h0v-4.69c-.14-.03-.26-.06-.36-.09-.11-.03-.2-.07-.29-.11h0v-.23h.7c.21,0,.44-.01.69-.03.25-.02.49-.03.73-.03h0c.26,0,.5.03.73.09.22.06.42.15.58.28.16.13.29.29.38.48.09.2.14.43.14.7h0c0,.38-.1.7-.31.96-.2.25-.48.44-.83.55h0c.23.36.46.71.71,1.07s.51.7.77,1.05h0l.43.23v.2h-.96l-.3-.22c-.15-.18-.28-.36-.4-.54-.12-.18-.24-.36-.34-.54-.1-.18-.2-.37-.3-.55-.09-.19-.19-.39-.28-.6h-.74Zm.54-2.73h0c-.13,0-.23,0-.31,0-.08,0-.16.02-.22.03h0v2.36h.57c.36,0,.65-.12.87-.35.21-.23.32-.54.32-.92h0c0-.39-.11-.68-.34-.86-.23-.19-.52-.28-.88-.28Z"/><path class="cls-2" d="m201.71,70.94v.23h-1.76v-.23c.19-.08.38-.15.57-.19h0l2-5.21h.23l2,5.21c.1.02.21.04.31.07.1.03.2.07.29.12h0v.23h-2.02v-.23c.1-.04.21-.08.32-.11.11-.03.22-.06.32-.08h0l-.54-1.45h-1.89l-.52,1.45c.22.03.45.09.68.19h0Zm.61-3.71l-.61,1.66h1.59l-.62-1.67-.15-.68h-.02l-.2.69Z"/><path class="cls-2" d="m212.25,65.64h3.75c0,.21-.01.42-.03.63-.01.22-.03.43-.06.65h-.21l-.32-.87h-1.72v2.09h1.29l.31-.59h.2c.03.52.03,1.06,0,1.6h-.2l-.31-.6h-1.29v2.21h1.82l.39-.95h.2c.04.22.06.45.08.67.01.23.02.46,0,.69h-3.9v-.23c.19-.08.4-.15.65-.19h0v-4.69c-.1-.02-.21-.05-.32-.08-.11-.03-.22-.07-.33-.11h0v-.23Z"/><path class="cls-2" d="m222.12,65.87v-.23h1.82v.23c-.09.04-.19.07-.29.11-.1.03-.2.06-.31.09h0l-1.39,2.15,1.62,2.55c.25.04.47.1.65.19h0v.23h-2.11v-.23c.19-.09.39-.16.6-.19h0l-1.25-1.99-1.2,1.99c.11.02.22.04.32.06s.21.06.31.12h0v.23h-1.83v-.23c.1-.05.2-.09.3-.12.1-.03.2-.05.29-.07h0l1.55-2.37-1.49-2.32c-.1-.03-.21-.06-.31-.09-.1-.03-.21-.07-.31-.1h0v-.23h2.1v.23c-.08.03-.17.06-.27.1-.1.03-.21.07-.34.1h0l1.11,1.79,1.08-1.79c-.22-.05-.44-.11-.66-.2h0Z"/><path class="cls-2" d="m228.31,69.01v1.75c.14.01.28.04.4.07.13.03.24.07.35.11h0v.23h-2.16v-.23c.1-.05.21-.09.32-.12.11-.03.22-.05.32-.07h0v-4.69c-.12-.02-.24-.05-.34-.08-.1-.03-.21-.07-.31-.11h0v-.23h.71c.21,0,.44-.01.69-.03.25-.02.48-.03.71-.03h0c.26,0,.51.03.76.08.25.06.47.15.66.28.19.13.35.31.47.53.12.22.17.49.17.82h0c0,.31-.06.58-.18.8-.12.22-.29.4-.49.55-.2.14-.43.25-.69.31-.26.07-.53.1-.8.1h-.12c-.06,0-.12,0-.18,0-.06,0-.12,0-.18-.01-.06,0-.1-.01-.13-.01h0Zm.54-3.02h0c-.13,0-.23,0-.31,0-.08,0-.15.02-.23.03h0v2.56s.06.01.11.02c.05,0,.1,0,.16.01s.11,0,.16,0h.13c.19,0,.36-.02.52-.07.16-.05.31-.13.43-.24.13-.11.22-.25.3-.42.08-.17.11-.37.11-.61h0c0-.43-.12-.76-.37-.97-.24-.22-.58-.32-1.01-.32Z"/><path class="cls-2" d="m233.98,65.64h3.75c0,.21-.01.42-.03.63-.01.22-.03.43-.06.65h-.21l-.32-.87h-1.73v2.09h1.29l.31-.59h.2c.03.52.03,1.06,0,1.6h-.2l-.31-.6h-1.29v2.21h1.82l.38-.95h.2c.03.22.06.45.08.67.01.23.02.46,0,.69h-3.9v-.23c.19-.08.4-.15.65-.19h0v-4.69c-.1-.02-.21-.05-.32-.08-.11-.03-.22-.07-.33-.11h0v-.23Z"/><path class="cls-2" d="m242.37,68.72v2.04c.12.03.24.05.35.08.11.03.22.06.32.1h0v.23h-2.08v-.23c.12-.05.23-.09.33-.12.1-.03.21-.05.31-.07h0v-4.69c-.14-.03-.26-.06-.36-.09-.1-.03-.2-.07-.28-.11h0v-.23h.69c.21,0,.44-.01.69-.03.25-.02.5-.03.73-.03h0c.26,0,.5.03.72.09.22.06.42.15.58.28.17.13.29.29.38.48.09.2.14.43.14.7h0c0,.38-.1.7-.31.96-.2.25-.48.44-.83.55h0c.23.36.46.71.71,1.07.25.35.51.7.77,1.05h0l.43.23v.2h-.96l-.3-.22c-.15-.18-.28-.36-.4-.54-.12-.18-.24-.36-.34-.54-.1-.18-.2-.37-.3-.55-.09-.19-.18-.39-.28-.6h-.74Zm.54-2.73h0c-.13,0-.23,0-.31,0-.08,0-.16.02-.22.03h0v2.36h.57c.36,0,.65-.12.87-.35.22-.23.32-.54.32-.92h0c0-.39-.11-.68-.34-.86-.23-.19-.52-.28-.88-.28Z"/><path class="cls-2" d="m250.54,70.94v.23h-2.02v-.23c.21-.09.42-.16.63-.19h0v-4.69c-.1-.02-.21-.05-.32-.08-.1-.03-.21-.07-.31-.11h0v-.23h2.02v.23c-.09.04-.2.08-.31.11-.11.03-.22.06-.32.08h0v4.69c.11.02.22.05.33.08.11.03.21.07.3.11h0Z"/><path class="cls-2" d="m253.52,65.64h3.75c0,.21-.02.42-.03.63-.01.22-.03.43-.06.65h-.21l-.32-.87h-1.73v2.09h1.29l.31-.59h.2c.03.52.03,1.06,0,1.6h-.2l-.31-.6h-1.29v2.21h1.82l.39-.95h.2c.04.22.06.45.08.67.02.23.02.46,0,.69h-3.9v-.23c.18-.08.4-.15.65-.19h0v-4.69c-.1-.02-.21-.05-.32-.08-.11-.03-.22-.07-.32-.11h0v-.23Z"/><path class="cls-2" d="m264.12,65.87v-.23h1.71v.23c-.22.15-.44.25-.65.31h0v5.09h-.45l-2.87-4.36-.31-.62h-.02l.07.62v3.76c.22.06.42.15.61.28h0v.23h-1.71v-.23c.1-.06.2-.11.31-.15.11-.05.22-.09.35-.12h0v-4.53c-.11-.04-.21-.09-.31-.14-.1-.05-.2-.09-.29-.14h0v-.22h1.34l2.49,3.75.36.68h.03l-.04-.68v-3.21c-.11-.05-.22-.1-.32-.15-.1-.05-.2-.11-.29-.17h0Z"/><path class="cls-2" d="m272.38,70.72l.37-.98h.21c.03.15.05.33.07.56.02.22.03.44.02.65h0c-.08.06-.17.12-.28.15-.11.04-.23.07-.35.1-.13.03-.25.05-.38.06-.13,0-.25.01-.37.01h0c-.44,0-.84-.06-1.19-.17-.35-.11-.64-.29-.88-.52-.24-.23-.43-.53-.55-.89-.13-.36-.19-.79-.19-1.28h0c0-.52.07-.95.21-1.32.14-.36.34-.66.58-.89.24-.23.52-.4.84-.5.32-.1.66-.16,1.01-.16h0c.35,0,.64.02.88.07.24.05.44.11.62.2h0c0,.08,0,.18,0,.3,0,.11-.01.23-.02.36-.01.13-.02.25-.04.37-.02.12-.03.23-.05.33h-.21l-.41-1.14c-.06-.03-.16-.05-.29-.06-.13-.01-.27-.02-.4-.02h0c-.26,0-.51.05-.75.14-.24.1-.44.25-.62.45-.18.2-.32.46-.42.76-.1.31-.16.67-.16,1.09h0c0,.38.05.72.14,1.02.1.3.23.56.41.77.18.21.4.38.66.49.26.11.55.17.88.17h0c.17,0,.32-.01.43-.04s.19-.06.23-.1h0Z"/><path class="cls-2" d="m278.3,70.94v.23h-2.03v-.23c.21-.09.42-.16.63-.19h0v-4.69c-.1-.02-.21-.05-.31-.08-.11-.03-.21-.07-.32-.11h0v-.23h2.03v.23c-.1.04-.2.08-.31.11-.11.03-.22.06-.32.08h0v4.69c.11.02.22.05.33.08s.21.07.3.11h0Z"/><path class="cls-2" d="m282.8,70.94v.23h-1.76v-.23c.19-.08.38-.15.57-.19h0l2-5.21h.23l2,5.21c.1.02.21.04.31.07.1.03.2.07.29.12h0v.23h-2.03v-.23c.1-.04.21-.08.33-.11.11-.03.22-.06.32-.08h0l-.54-1.45h-1.89l-.52,1.45c.22.03.45.09.68.19h0Zm.61-3.71l-.61,1.66h1.6l-.62-1.67-.15-.68h-.01l-.2.69Z"/><path class="cls-2" d="m293.35,65.64h3.75c0,.21-.01.42-.03.63-.01.22-.03.43-.06.65h-.21l-.32-.87h-1.73v2.09h1.29l.31-.59h.2c.03.52.03,1.06,0,1.6h-.2l-.31-.6h-1.29v2.21h1.82l.39-.95h.2c.04.22.06.45.08.67.02.23.02.46,0,.69h-3.9v-.23c.18-.08.4-.15.65-.19h0v-4.69c-.1-.02-.21-.05-.32-.08-.11-.03-.22-.07-.32-.11h0v-.23Z"/><path class="cls-2" d="m300.95,69.47l.32,1.16c.06.06.15.12.25.16.1.04.25.07.45.07h0c.17,0,.33-.02.47-.07.15-.05.28-.11.38-.2.11-.09.19-.19.26-.32.06-.12.1-.26.1-.42h0c0-.21-.07-.39-.2-.53-.13-.14-.29-.27-.48-.38-.19-.11-.4-.22-.63-.32-.23-.1-.44-.23-.63-.38-.19-.15-.35-.32-.48-.52-.13-.2-.2-.46-.2-.76h0c0-.22.04-.42.12-.59.08-.17.19-.32.34-.44.15-.12.32-.22.52-.28.2-.06.43-.1.67-.1h0c.32,0,.61.02.88.07.27.05.47.11.63.19h0c0,.09,0,.19-.02.31-.01.12-.03.24-.05.37-.02.13-.04.25-.06.37-.02.12-.05.22-.07.31h-.21l-.31-1.08c-.1-.04-.22-.08-.36-.1-.15-.02-.3-.03-.46-.03h0c-.27,0-.48.08-.65.23-.16.15-.24.36-.24.62h0c0,.22.06.4.19.55.13.15.29.28.48.4.2.12.4.23.63.34.22.11.43.23.63.38s.36.31.49.51c.13.2.19.44.19.73h0c0,.24-.04.46-.13.65-.09.2-.21.36-.38.5-.16.14-.36.24-.6.31-.24.07-.51.11-.81.11h0c-.33,0-.63-.04-.9-.12-.26-.08-.45-.16-.56-.25h0c0-.09.01-.2.03-.32.01-.13.03-.26.05-.39.02-.13.04-.26.06-.39.02-.13.04-.24.06-.32h.21Z"/><path class="cls-2" d="m314.55,70.94v.23h-2.22v-.23c.12-.04.23-.08.35-.11.12-.03.25-.06.38-.08h0v-4.71h-1.21l-.42,1.13h-.2c-.01-.11-.03-.23-.04-.36-.01-.13-.02-.27-.03-.41,0-.14-.02-.28-.02-.41,0-.13,0-.25,0-.36h4.6c0,.1,0,.22,0,.35s-.01.27-.02.41c0,.14-.02.28-.03.41,0,.14-.02.26-.03.37h-.21l-.41-1.13h-1.21v4.71c.14.03.27.05.38.08.12.03.23.06.34.11h0Z"/><path class="cls-2" d="m318.34,65.87v-.23h2.01v.23c-.1.04-.2.08-.3.11-.1.03-.2.06-.3.09h0v3.24c0,.28.03.51.09.7.06.19.15.34.27.45.12.11.26.2.43.24.17.05.36.07.58.07h0c.42,0,.74-.11.97-.34.23-.23.35-.61.35-1.14h0v-3.15c-.12-.04-.24-.09-.34-.13-.1-.05-.2-.09-.28-.14h0v-.23h1.69v.23c-.1.06-.2.11-.31.16-.1.05-.21.09-.31.11h0v3.17c0,.34-.04.63-.13.87-.09.24-.22.44-.38.6-.16.16-.36.28-.59.35-.23.08-.48.11-.76.11h0c-.66,0-1.16-.15-1.51-.45-.35-.3-.52-.76-.52-1.37h0v-3.36c-.22-.03-.43-.1-.65-.2h0Z"/><path class="cls-2" d="m331.11,69.47l.32,1.16c.06.06.15.12.24.16.1.04.25.07.45.07h0c.17,0,.33-.02.48-.07.15-.05.28-.11.38-.2.11-.09.19-.19.25-.32.06-.12.1-.26.1-.42h0c0-.21-.06-.39-.19-.53-.13-.14-.29-.27-.48-.38-.19-.11-.4-.22-.62-.32-.23-.1-.44-.23-.63-.38-.19-.15-.35-.32-.48-.52-.13-.2-.19-.46-.19-.76h0c0-.22.04-.42.12-.59.08-.17.19-.32.34-.44.15-.12.32-.22.52-.28.2-.06.43-.1.67-.1h0c.32,0,.62.02.88.07.27.05.48.11.63.19h0c0,.09,0,.19-.02.31-.01.12-.03.24-.05.37-.02.13-.04.25-.06.37-.02.12-.04.22-.06.31h-.21l-.32-1.08c-.09-.04-.21-.08-.36-.1-.15-.02-.3-.03-.46-.03h0c-.27,0-.48.08-.65.23-.16.15-.24.36-.24.62h0c0,.22.07.4.2.55.13.15.29.28.48.4.2.12.4.23.63.34.22.11.43.23.63.38s.36.31.48.51c.13.2.19.44.19.73h0c0,.24-.04.46-.13.65-.09.2-.21.36-.38.5-.16.14-.36.24-.6.31-.24.07-.51.11-.81.11h0c-.33,0-.63-.04-.89-.12-.27-.08-.45-.16-.56-.25h0c0-.09.02-.2.03-.32.01-.13.03-.26.05-.39.02-.13.04-.26.06-.39.02-.13.04-.24.07-.32h.21Z"/><path class="cls-2" d="m337.08,65.64h3.75c0,.21-.01.42-.03.63-.01.22-.03.43-.06.65h-.21l-.32-.87h-1.73v2.09h1.29l.31-.59h.2c.03.52.03,1.06,0,1.6h-.2l-.31-.6h-1.29v2.21h1.82l.38-.95h.2c.03.22.06.45.08.67.01.23.02.46,0,.69h-3.9v-.23c.18-.08.4-.15.65-.19h0v-4.69c-.11-.02-.22-.05-.33-.08-.11-.03-.22-.07-.32-.11h0v-.23Z"/><path class="cls-2" d="m348.64,68.98v1.81c-.1.06-.22.12-.35.17-.13.06-.28.1-.43.15s-.3.08-.45.11c-.15.03-.29.04-.42.04h0c-.42,0-.8-.06-1.14-.17-.33-.11-.62-.29-.86-.52-.24-.24-.42-.53-.55-.89-.13-.36-.19-.78-.19-1.28h0c0-.52.08-.96.23-1.32.15-.36.35-.66.6-.89.25-.23.54-.4.86-.5.32-.1.64-.15.97-.15h0c.35,0,.64.02.88.07.24.05.45.11.63.2h0c0,.08,0,.18,0,.29,0,.12-.01.24-.02.37-.01.13-.02.25-.04.38-.02.12-.03.23-.05.33h-.21l-.42-1.14c-.06-.03-.15-.05-.29-.06-.14-.01-.28-.02-.41-.02h0c-.26,0-.51.05-.75.14-.24.1-.44.25-.62.45-.17.2-.32.46-.42.76-.1.31-.16.67-.16,1.09h0c0,.38.05.71.15,1.01.1.3.25.56.43.77.18.22.4.38.64.49.24.12.51.17.8.17h0c.1,0,.21-.01.31-.03.1-.02.2-.05.28-.07.08-.03.15-.06.21-.09.06-.03.09-.06.11-.08h0v-1.6c-.14,0-.27-.03-.39-.07-.12-.04-.24-.08-.37-.12h0v-.23h1.94v.23c-.06.03-.12.07-.19.1-.07.03-.17.06-.3.09h0Z"/><path class="cls-2" d="m351.72,65.87v-.23h2.01v.23c-.1.04-.2.08-.3.11-.1.03-.2.06-.3.09h0v3.24c0,.28.03.51.09.7.06.19.15.34.27.45.12.11.26.2.43.24.17.05.37.07.58.07h0c.42,0,.74-.11.97-.34.23-.23.35-.61.35-1.14h0v-3.15c-.12-.04-.24-.09-.34-.13-.1-.05-.2-.09-.28-.14h0v-.23h1.69v.23c-.1.06-.2.11-.31.16-.1.05-.21.09-.31.11h0v3.17c0,.34-.04.63-.13.87-.09.24-.22.44-.38.6-.16.16-.36.28-.59.35-.23.08-.48.11-.76.11h0c-.66,0-1.16-.15-1.51-.45-.35-.3-.52-.76-.52-1.37h0v-3.36c-.22-.03-.43-.1-.65-.2h0Z"/><path class="cls-2" d="m360.96,68.72v2.04c.12.03.24.05.35.08s.22.06.32.1h0v.23h-2.08v-.23c.12-.05.23-.09.33-.12.1-.03.21-.05.32-.07h0v-4.69c-.14-.03-.26-.06-.37-.09-.1-.03-.2-.07-.28-.11h0v-.23h.69c.21,0,.44-.01.69-.03.25-.02.49-.03.73-.03h0c.26,0,.5.03.73.09.22.06.42.15.58.28.16.13.29.29.38.48.09.2.14.43.14.7h0c0,.38-.1.7-.3.96-.2.25-.48.44-.83.55h0c.23.36.46.71.71,1.07.25.35.51.7.78,1.05h0l.42.23v.2h-.96l-.3-.22c-.15-.18-.28-.36-.41-.54-.12-.18-.23-.36-.34-.54-.11-.18-.21-.37-.3-.55-.09-.19-.19-.39-.28-.6h-.74Zm.54-2.73h0c-.13,0-.23,0-.31,0s-.16.02-.23.03h0v2.36h.57c.36,0,.65-.12.87-.35.21-.23.32-.54.32-.92h0c0-.39-.11-.68-.34-.86-.23-.19-.52-.28-.88-.28Z"/><path class="cls-2" d="m369.14,70.94v.23h-2.03v-.23c.21-.09.42-.16.63-.19h0v-4.69c-.1-.02-.21-.05-.31-.08-.1-.03-.21-.07-.32-.11h0v-.23h2.03v.23c-.1.04-.2.08-.31.11-.11.03-.22.06-.32.08h0v4.69c.11.02.22.05.33.08.11.03.21.07.3.11h0Z"/><path class="cls-2" d="m372.88,71.18h-.76v-.23c.19-.08.4-.15.65-.19h0v-4.69c-.12-.03-.24-.06-.35-.09-.11-.03-.21-.07-.3-.11h0v-.23h.81c.09,0,.2,0,.31,0,.12,0,.25-.01.38-.02.13,0,.25-.01.37-.02.12,0,.22-.01.3-.01h0c.9,0,1.59.24,2.07.72.48.48.73,1.16.73,2.04h0c0,.42-.06.8-.18,1.16-.12.36-.3.66-.54.92-.24.26-.55.46-.92.61-.37.15-.81.22-1.32.22h0c-.08,0-.17,0-.27-.01-.1,0-.21-.02-.32-.02-.11,0-.22-.02-.34-.03-.11,0-.22,0-.32,0h0Zm1.3-5.19h0c-.14,0-.27,0-.4,0-.13,0-.22.01-.3.03h0v4.79s.07.01.14.01c.07,0,.14,0,.22,0,.08,0,.15,0,.22,0h.16c.36,0,.67-.07.92-.21.25-.14.46-.32.62-.55.16-.23.28-.5.35-.8.07-.3.11-.62.11-.95h0c0-.26-.03-.53-.1-.8-.07-.28-.19-.53-.35-.76-.16-.23-.37-.42-.63-.56-.27-.15-.59-.22-.97-.22Z"/><path class="cls-2" d="m381.19,70.94v.23h-1.76v-.23c.19-.08.38-.15.57-.19h0l2-5.21h.23l2,5.21c.1.02.21.04.31.07.1.03.2.07.29.12h0v.23h-2.03v-.23c.11-.04.22-.08.33-.11.11-.03.22-.06.32-.08h0l-.54-1.45h-1.89l-.52,1.45c.22.03.45.09.68.19h0Zm.61-3.71l-.61,1.66h1.6l-.62-1.67-.15-.68h-.02l-.2.69Z"/><path class="cls-2" d="m388.2,71.18h-.76v-.23c.19-.08.4-.15.65-.19h0v-4.69c-.12-.03-.24-.06-.35-.09-.11-.03-.21-.07-.3-.11h0v-.23h.81c.09,0,.2,0,.31,0,.12,0,.25-.01.38-.02.13,0,.25-.01.37-.02.12,0,.22-.01.3-.01h0c.9,0,1.59.24,2.07.72.48.48.73,1.16.73,2.04h0c0,.42-.06.8-.18,1.16-.12.36-.3.66-.54.92-.24.26-.55.46-.92.61-.37.15-.81.22-1.32.22h0c-.08,0-.17,0-.27-.01-.1,0-.21-.02-.32-.02-.11,0-.22-.02-.34-.03-.11,0-.22,0-.32,0h0Zm1.3-5.19h0c-.14,0-.27,0-.4,0-.13,0-.23.01-.3.03h0v4.79s.08.01.14.01c.07,0,.14,0,.22,0,.08,0,.15,0,.22,0h.16c.36,0,.67-.07.92-.21.25-.14.46-.32.62-.55.16-.23.28-.5.35-.8.07-.3.11-.62.11-.95h0c0-.26-.03-.53-.1-.8s-.19-.53-.35-.76c-.16-.23-.37-.42-.63-.56-.27-.15-.59-.22-.97-.22Z"/><path class="cls-2" d="m399.7,65.87v-.23h2.17v.23c-.13.05-.25.09-.38.12-.13.03-.25.06-.38.07h0v4.7h1.82l.47-1.27h.21c.01.11.03.24.04.38.01.15.02.3.03.45,0,.15.01.31.01.45s0,.28,0,.4h-3.98v-.23c.13-.06.24-.1.35-.13.1-.03.21-.05.3-.06h0v-4.69c-.12-.02-.24-.05-.35-.08-.11-.03-.21-.07-.3-.11h0Z"/><path class="cls-2" d="m406.42,65.64h3.75c0,.21-.01.42-.03.63-.01.22-.03.43-.06.65h-.21l-.32-.87h-1.73v2.09h1.29l.31-.59h.2c.03.52.03,1.06,0,1.6h-.2l-.31-.6h-1.29v2.21h1.82l.38-.95h.2c.03.22.06.45.08.67.01.23.02.46,0,.69h-3.9v-.23c.19-.08.4-.15.65-.19h0v-4.69c-.11-.02-.22-.05-.33-.08-.11-.03-.22-.07-.32-.11h0v-.23Z"/><path class="cls-2" d="m417.98,68.98v1.81c-.1.06-.22.12-.35.17-.13.06-.28.1-.43.15-.15.04-.3.08-.45.11-.15.03-.29.04-.42.04h0c-.42,0-.8-.06-1.14-.17-.33-.11-.62-.29-.86-.52-.24-.24-.42-.53-.55-.89-.13-.36-.19-.78-.19-1.28h0c0-.52.08-.96.23-1.32.15-.36.35-.66.6-.89.25-.23.54-.4.86-.5.32-.1.64-.15.97-.15h0c.35,0,.64.02.88.07.24.05.45.11.63.2h0c0,.08,0,.18,0,.29,0,.12-.01.24-.02.37-.01.13-.02.25-.04.38-.02.12-.03.23-.05.33h-.21l-.41-1.14c-.06-.03-.16-.05-.29-.06-.14-.01-.27-.02-.41-.02h0c-.26,0-.51.05-.75.14-.24.1-.44.25-.62.45-.17.2-.32.46-.42.76-.1.31-.16.67-.16,1.09h0c0,.38.05.71.16,1.01.1.3.24.56.42.77.18.22.4.38.64.49.24.12.51.17.8.17h0c.1,0,.21-.01.31-.03.1-.02.2-.05.28-.07.08-.03.15-.06.21-.09s.09-.06.11-.08h0v-1.6c-.14,0-.27-.03-.39-.07-.12-.04-.24-.08-.37-.12h0v-.23h1.94v.23c-.05.03-.12.07-.19.1-.07.03-.17.06-.3.09h0Z"/><path class="cls-2" d="m422.73,70.94v.23h-1.76v-.23c.19-.08.38-.15.57-.19h0l2-5.21h.23l2,5.21c.1.02.21.04.31.07.1.03.2.07.29.12h0v.23h-2.03v-.23c.1-.04.21-.08.32-.11.11-.03.22-.06.33-.08h0l-.54-1.45h-1.89l-.52,1.45c.22.03.45.09.68.19h0Zm.61-3.71l-.61,1.66h1.6l-.62-1.67-.15-.68h-.01l-.2.69Z"/><path class="cls-2" d="m428.98,65.87v-.23h2.17v.23c-.13.05-.25.09-.38.12-.13.03-.25.06-.38.07h0v4.7h1.82l.46-1.27h.21c.02.11.03.24.04.38.01.15.03.3.03.45,0,.15,0,.31,0,.45s0,.28,0,.4h-3.98v-.23c.13-.06.24-.1.35-.13.1-.03.21-.05.3-.06h0v-4.69c-.12-.02-.24-.05-.35-.08-.11-.03-.21-.07-.3-.11h0Z"/><g class="cls-1"><path class="cls-3" d="m21.93,76.78c-1.6,1.49-3.68,2.15-5.85,1.87-1.11-.12-2.15-.53-3.11-1.18-.97-.64-1.88-1.5-2.63-2.53h0c1.81-1.22,4.05-1.52,6.1-1.15,1.03.18,1.99.56,2.92,1.06.96.47,1.84,1.11,2.58,1.93Z"/><path class="cls-3" d="m24.16,74.71c1.6-1.49,2.5-3.45,2.78-5.27.11-.9.14-1.83.01-2.71-.14-.87-.45-1.67-.98-2.38-1.81,1.22-3.01,2.93-3.38,4.84-.18.95-.19,1.97.07,2.92.29.92.8,1.81,1.5,2.59Z"/><path class="cls-3" d="m15.81,68.8h0c-1.85,1.16-4.01,1.41-6.09.71-2.14-.64-3.83-2.42-4.93-4.75,2.02-.85,4.26-.71,6.19.05.99.37,1.81.95,2.68,1.59.85.65,1.58,1.45,2.14,2.4h0Z"/><path class="cls-3" d="m18.4,67.19h0c1.85-1.16,3.12-2.91,3.75-4.65.55-1.71.8-3.6.03-5.16-2.02.85-3.52,2.3-4.26,4.11-.35.89-.61,1.92-.48,2.87.11.96.42,1.94.96,2.84Z"/><path class="cls-3" d="m11.34,59.8c-2.04.78-4.21.61-6.1-.48-1.97-1.05-3.32-3.1-3.93-5.59h0c2.14-.45,4.31.12,6.06,1.23,1.68,1.15,3.24,2.75,3.96,4.84Z"/><path class="cls-3" d="m14.19,58.71h0c2.04-.78,3.63-2.26,4.59-3.85.88-1.58,1.46-3.37,1.01-5.07-2.14.45-3.9,1.58-4.97,3.23-1.15,1.65-1.31,3.71-.63,5.7Z"/><path class="cls-3" d="m8.69,50.1c-2.15.38-4.24-.2-5.89-1.63-1.72-1.4-2.67-3.67-2.79-6.23h0c2.19-.03,4.21.93,5.72,2.35,1.43,1.44,2.66,3.31,2.97,5.51Z"/><path class="cls-3" d="m11.69,49.58c2.15-.38,3.99-1.53,5.24-2.91,1.17-1.39,2.06-3.04,1.96-4.79-2.19.03-4.13.82-5.5,2.22-1.45,1.4-1.99,3.39-1.7,5.48Z"/><path class="cls-3" d="m7.92,40.08h0c-2.19-.03-4.13-1-5.48-2.71-1.43-1.7-1.93-4.11-1.56-6.65h0c2.15.38,3.96,1.71,5.17,3.4,1.13,1.69,1.99,3.75,1.87,5.97Z"/><path class="cls-3" d="m10.96,40.14c2.19.03,4.21-.74,5.7-1.86,1.41-1.14,2.6-2.59,2.83-4.33h0c-2.15-.38-4.21.02-5.82,1.14-1.69,1.1-2.59,2.95-2.71,5.05h0Z"/><path class="cls-3" d="m9.07,30.09c-2.14-.45-3.86-1.77-4.86-3.7-1.08-1.94-1.12-4.41-.26-6.83,2.04.78,3.56,2.44,4.42,4.32.78,1.87,1.24,4.07.7,6.22Z"/><path class="cls-3" d="m12.05,30.72c2.14.45,4.28.07,5.95-.75,1.6-.85,3.04-2.05,3.6-3.71-2.04-.78-4.14-.78-5.93,0-1.87.76-3.1,2.41-3.62,4.45Z"/><path class="cls-3" d="m12.09,20.5c-2.02-.85-3.45-2.47-4.06-4.56-.28-1.03-.46-2.22-.23-3.35.2-1.14.63-2.31,1.29-3.41,1.85,1.16,3.02,3.07,3.5,5.08.4,1.98.46,4.24-.5,6.24Z"/><path class="cls-3" d="m14.89,21.69c2.02.85,4.19.88,5.99.41.93-.23,1.66-.65,2.44-1.11.75-.47,1.37-1.08,1.81-1.84-1.85-1.16-3.91-1.57-5.83-1.13-1.99.38-3.49,1.78-4.4,3.67Z"/><path class="cls-3" d="m16.89,11.66h0c-1.81-1.22-2.91-3.08-3.1-5.25-.09-1.07.01-2.24.39-3.34.42-1.07,1.07-2.13,1.93-3.07,1.6,1.49,2.38,3.58,2.46,5.64.01,1.01-.07,2.08-.32,3.12-.26,1.03-.7,2.01-1.36,2.91h0Z"/><path class="cls-3" d="m19.41,13.37c1.81,1.22,3.94,1.67,5.81,1.55.94-.06,1.79-.29,2.59-.64.84-.32,1.57-.79,2.16-1.45h0c-1.6-1.49-3.55-2.28-5.53-2.24-1.01,0-1.94.27-2.78.76-.85.48-1.62,1.16-2.24,2h0Z"/><path class="cls-3" d="m95.95,74.71c-1.6-1.49-2.5-3.45-2.78-5.27-.11-.9-.14-1.83-.01-2.71.14-.87.45-1.67.98-2.38,1.81,1.22,3.01,2.93,3.38,4.84.18.95.19,1.97-.07,2.92-.29.92-.8,1.81-1.5,2.59Z"/><path class="cls-3" d="m98.18,76.78c1.6,1.49,3.68,2.15,5.85,1.87,1.11-.12,2.15-.53,3.11-1.18.97-.64,1.88-1.5,2.63-2.53h0c-1.81-1.22-4.05-1.52-6.1-1.15-1.03.18-1.99.56-2.92,1.06-.96.47-1.84,1.11-2.58,1.93Z"/><path class="cls-3" d="m101.71,67.19c-1.85-1.16-3.12-2.91-3.75-4.65-.55-1.71-.8-3.6-.03-5.16,2.02.85,3.52,2.3,4.26,4.11.35.89.61,1.92.48,2.87-.11.96-.42,1.94-.96,2.84h0Z"/><path class="cls-3" d="m104.29,68.8h0c1.85,1.16,4.01,1.41,6.09.71,2.14-.64,3.83-2.42,4.93-4.75-2.02-.85-4.26-.71-6.19.05-.99.37-1.81.95-2.68,1.59-.85.65-1.58,1.45-2.14,2.4Z"/><path class="cls-3" d="m105.92,58.71h0c-2.04-.78-3.63-2.26-4.59-3.85-.88-1.58-1.46-3.37-1.01-5.07h0c2.14.45,3.9,1.58,4.97,3.23,1.15,1.65,1.31,3.71.63,5.7Z"/><path class="cls-3" d="m108.76,59.8c2.04.78,4.21.61,6.1-.48,1.97-1.05,3.32-3.1,3.93-5.59h0c-2.14-.45-4.31.12-6.06,1.23-1.68,1.15-3.24,2.75-3.96,4.84Z"/><path class="cls-3" d="m108.42,49.58c-2.15-.38-3.99-1.53-5.24-2.91-1.17-1.39-2.06-3.04-1.96-4.79,2.19.03,4.13.82,5.5,2.22,1.45,1.4,1.99,3.39,1.7,5.48Z"/><path class="cls-3" d="m111.42,50.1c2.15.38,4.24-.2,5.89-1.63,1.72-1.4,2.67-3.67,2.79-6.23h0c-2.19-.03-4.21.93-5.72,2.35-1.43,1.44-2.66,3.31-2.97,5.51Z"/><path class="cls-3" d="m109.14,40.14c-2.19.03-4.21-.74-5.7-1.86-1.41-1.14-2.6-2.59-2.83-4.33,2.15-.38,4.21.02,5.82,1.14,1.69,1.1,2.59,2.95,2.71,5.05h0Z"/><path class="cls-3" d="m112.19,40.08h0c2.19-.03,4.13-1,5.48-2.71,1.43-1.7,1.93-4.11,1.56-6.65-2.15.38-3.96,1.71-5.17,3.4-1.13,1.69-1.99,3.75-1.87,5.97Z"/><path class="cls-3" d="m108.06,30.72c-2.14.45-4.28.07-5.95-.75-1.6-.85-3.04-2.05-3.6-3.71,2.04-.78,4.14-.78,5.93,0,1.87.76,3.1,2.41,3.62,4.45Z"/><path class="cls-3" d="m111.04,30.09c2.14-.45,3.86-1.77,4.86-3.7,1.08-1.94,1.12-4.41.26-6.83-2.04.78-3.56,2.44-4.42,4.32-.78,1.87-1.24,4.07-.7,6.22Z"/><path class="cls-3" d="m105.22,21.69c-2.02.85-4.19.88-5.99.41-.93-.23-1.66-.65-2.44-1.11-.75-.47-1.37-1.08-1.81-1.84,1.85-1.16,3.91-1.57,5.83-1.13,1.99.38,3.49,1.78,4.4,3.67Z"/><path class="cls-3" d="m108.02,20.5c2.02-.85,3.45-2.47,4.06-4.56.28-1.03.46-2.22.23-3.35-.2-1.14-.63-2.31-1.29-3.41-1.85,1.16-3.02,3.07-3.5,5.08-.4,1.98-.46,4.24.5,6.24Z"/><path class="cls-3" d="m100.7,13.37c-1.81,1.22-3.94,1.67-5.81,1.55-.94-.06-1.79-.29-2.59-.64-.84-.32-1.57-.79-2.16-1.45h0c1.6-1.49,3.55-2.28,5.53-2.24,1.01,0,1.94.27,2.78.76.85.48,1.62,1.16,2.24,2h0Z"/><path class="cls-3" d="m103.22,11.66h0c1.81-1.22,2.91-3.08,3.1-5.25.09-1.07-.01-2.24-.39-3.34-.42-1.07-1.07-2.13-1.93-3.07-1.6,1.49-2.38,3.58-2.46,5.64-.01,1.01.07,2.08.32,3.12.26,1.03.7,2.01,1.36,2.91h0Z"/></g><path class="cls-2" d="m51.01,31.31c0-.6.48-1.08,1.08-1.08s1.08.48,1.08,1.08-.48,1.08-1.08,1.08-1.08-.48-1.08-1.08h0Z"/><path class="cls-2" d="m54.27,31.31c0-.6.48-1.08,1.08-1.08s1.07.48,1.07,1.08-.48,1.08-1.07,1.08c-.59,0-1.08-.48-1.08-1.08h0Z"/><path class="cls-2" d="m51.01,34.56c0-.6.48-1.08,1.08-1.08s1.08.48,1.08,1.08-.48,1.07-1.08,1.07-1.08-.48-1.08-1.07h0Z"/><path class="cls-2" d="m54.27,34.56c0-.6.48-1.08,1.08-1.08s1.07.48,1.07,1.08-.48,1.07-1.07,1.07-1.08-.48-1.08-1.07h0Z"/><path class="cls-2" d="m51.01,37.82c0-.6.48-1.08,1.08-1.08s1.08.48,1.08,1.08-.48,1.07-1.08,1.07-1.08-.48-1.08-1.07h0Z"/><path class="cls-2" d="m54.27,37.82c0-.6.48-1.08,1.08-1.08s1.07.48,1.07,1.08-.48,1.07-1.07,1.07-1.08-.48-1.08-1.07h0Z"/><path class="cls-2" d="m51.01,41.07c0-.59.48-1.07,1.08-1.07s1.08.48,1.08,1.07-.48,1.08-1.08,1.08-1.08-.48-1.08-1.08h0Z"/><path class="cls-2" d="m54.27,41.07c0-.59.48-1.07,1.08-1.07s1.07.48,1.07,1.07-.48,1.08-1.07,1.08-1.08-.48-1.08-1.08h0Z"/><path class="cls-2" d="m57.52,31.31c0-.6.48-1.08,1.08-1.08s1.07.48,1.07,1.08-.48,1.08-1.07,1.08c-.6,0-1.08-.48-1.08-1.08h0Z"/><path class="cls-2" d="m60.78,31.31c0-.6.48-1.08,1.07-1.08s1.08.48,1.08,1.08-.48,1.08-1.08,1.08c-.59,0-1.07-.48-1.07-1.08h0Z"/><path class="cls-2" d="m64.03,31.31c0-.6.48-1.08,1.07-1.08s1.08.48,1.08,1.08-.48,1.08-1.08,1.08c-.59,0-1.07-.48-1.07-1.08h0Z"/><path class="cls-2" d="m67.28,31.31c0-.6.48-1.08,1.08-1.08s1.08.48,1.08,1.08-.48,1.08-1.08,1.08-1.08-.48-1.08-1.08h0Z"/><path class="cls-2" d="m57.52,34.56c0-.6.48-1.08,1.08-1.08s1.07.48,1.07,1.08-.48,1.07-1.07,1.07-1.08-.48-1.08-1.07h0Z"/><path class="cls-2" d="m60.78,34.56c0-.6.48-1.08,1.07-1.08s1.08.48,1.08,1.08-.48,1.07-1.08,1.07-1.07-.48-1.07-1.07h0Z"/><path class="cls-2" d="m64.03,34.56c0-.6.48-1.08,1.07-1.08s1.08.48,1.08,1.08-.48,1.07-1.08,1.07-1.07-.48-1.07-1.07h0Z"/><path class="cls-2" d="m67.28,34.56c0-.6.48-1.08,1.08-1.08s1.08.48,1.08,1.08-.48,1.07-1.08,1.07-1.08-.48-1.08-1.07h0Z"/><path class="cls-2" d="m64.03,37.82c0-.6.48-1.08,1.07-1.08s1.08.48,1.08,1.08-.48,1.07-1.08,1.07-1.07-.48-1.07-1.07h0Z"/><path class="cls-2" d="m67.28,37.82c0-.6.48-1.08,1.08-1.08s1.08.48,1.08,1.08-.48,1.07-1.08,1.07-1.08-.48-1.08-1.07h0Z"/><path class="cls-2" d="m64.03,41.07c0-.59.48-1.07,1.07-1.07s1.08.48,1.08,1.07-.48,1.08-1.08,1.08-1.07-.48-1.07-1.08h0Z"/><path class="cls-2" d="m67.28,41.07c0-.59.48-1.07,1.08-1.07s1.08.48,1.08,1.07-.48,1.08-1.08,1.08-1.08-.48-1.08-1.08h0Z"/><path class="cls-2" d="m51.01,44.32c0-.59.48-1.07,1.08-1.07s1.08.48,1.08,1.07-.48,1.08-1.08,1.08-1.08-.48-1.08-1.08h0Z"/><path class="cls-2" d="m54.27,44.32c0-.59.48-1.07,1.08-1.07s1.07.48,1.07,1.07-.48,1.08-1.07,1.08c-.59,0-1.08-.48-1.08-1.08h0Z"/><path class="cls-2" d="m51.01,47.57c0-.59.48-1.08,1.08-1.08s1.08.48,1.08,1.08-.48,1.08-1.08,1.08-1.08-.48-1.08-1.08h0Z"/><path class="cls-2" d="m54.27,47.57c0-.59.48-1.08,1.08-1.08s1.07.48,1.07,1.08-.48,1.08-1.07,1.08-1.08-.48-1.08-1.08h0Z"/><path class="cls-2" d="m57.52,44.32c0-.59.48-1.07,1.08-1.07s1.07.48,1.07,1.07-.48,1.08-1.07,1.08c-.6,0-1.08-.48-1.08-1.08h0Z"/><path class="cls-2" d="m60.78,44.32c0-.59.48-1.07,1.07-1.07s1.08.48,1.08,1.07-.48,1.08-1.08,1.08c-.59,0-1.07-.48-1.07-1.08h0Z"/><path class="cls-2" d="m64.03,44.32c0-.59.48-1.07,1.07-1.07s1.08.48,1.08,1.07-.48,1.08-1.08,1.08c-.59,0-1.07-.48-1.07-1.08h0Z"/><path class="cls-2" d="m67.28,44.32c0-.59.48-1.07,1.08-1.07s1.08.48,1.08,1.07-.48,1.08-1.08,1.08-1.08-.48-1.08-1.08h0Z"/><path class="cls-2" d="m57.52,47.57c0-.59.48-1.08,1.08-1.08s1.07.48,1.07,1.08-.48,1.08-1.07,1.08-1.08-.48-1.08-1.08h0Z"/><path class="cls-2" d="m60.78,47.57c0-.59.48-1.08,1.07-1.08s1.08.48,1.08,1.08-.48,1.08-1.08,1.08-1.07-.48-1.07-1.08h0Z"/><path class="cls-2" d="m64.03,47.57c0-.59.48-1.08,1.07-1.08s1.08.48,1.08,1.08-.48,1.08-1.08,1.08-1.07-.48-1.07-1.08h0Z"/><path class="cls-2" d="m67.28,47.57c0-.59.48-1.08,1.08-1.08s1.08.48,1.08,1.08-.48,1.08-1.08,1.08-1.08-.48-1.08-1.08h0Z"/><path class="cls-2" d="m81.21,75.02h-41.76c-.3,0-.5-.2-.5-.5s.2-.5.5-.5h41.71c.3,0,.5.2.5.5s-.2.5-.45.5Z"/></g></svg>